<svg width="512" height="512" viewBox="0 0 512 512" fill="none" xmlns="http://www.w3.org/2000/svg">
<g clip-path="url(#clip0_3_10)">
<path fill-rule="evenodd" clip-rule="evenodd" d="M253.421 501.393C389.051 501.393 499 391.408 499 255.735C499 120.062 389.051 10.0768 253.421 10.0768C205.995 10.0768 161.709 23.5248 124.166 46.8167C134.97 44.8027 146.13 43.7478 157.546 43.7478C253.871 43.7478 331.957 118.85 331.957 211.494C331.957 304.138 253.871 379.24 157.546 379.24C97.269 379.24 44.1335 349.83 12.8059 305.116C35.6559 417.122 134.701 501.393 253.421 501.393Z" fill="#F8E71C"/>
<path d="M124.166 46.8167L121.357 42.2885L125.143 52.0553L124.166 46.8167ZM12.8058 305.116L17.1701 302.058L7.58452 306.181L12.8058 305.116ZM493.671 255.735C493.671 388.467 386.106 496.064 253.421 496.064V506.722C391.995 506.722 504.329 394.35 504.329 255.735H493.671ZM253.421 15.4056C386.106 15.4056 493.671 123.003 493.671 255.735H504.329C504.329 117.12 391.995 4.74801 253.421 4.74801V15.4056ZM126.975 51.3448C163.7 28.5611 207.017 15.4056 253.421 15.4056V4.74801C204.974 4.74801 159.719 18.4885 121.357 42.2885L126.975 51.3448ZM125.143 52.0553C135.626 50.101 146.459 49.0766 157.546 49.0766V38.419C145.801 38.419 134.315 39.5043 123.19 41.5781L125.143 52.0553ZM157.546 49.0766C251.125 49.0766 326.628 121.987 326.628 211.494H337.285C337.285 115.714 256.616 38.419 157.546 38.419V49.0766ZM326.628 211.494C326.628 301.001 251.125 373.911 157.546 373.911V384.569C256.616 384.569 337.285 307.274 337.285 211.494H326.628ZM157.546 373.911C99.0248 373.911 47.5106 345.364 17.1701 302.058L8.44152 308.174C40.7562 354.297 95.513 384.569 157.546 384.569V373.911ZM253.421 496.064C137.284 496.064 40.3812 413.626 18.027 304.051L7.58452 306.181C30.9305 420.618 132.117 506.722 253.421 506.722V496.064Z" fill="#111827"/>
</g>
<defs>
<clipPath id="clip0_3_10">
<rect width="512" height="512" fill="white"/>
</clipPath>
</defs>
</svg>
