<?xml version="1.0" encoding="UTF-8"?>
<svg width="700px" height="250px" viewBox="0 0 700 250" version="1.1" xmlns="http://www.w3.org/2000/svg" xmlns:xlink="http://www.w3.org/1999/xlink">
    <!-- Generator: Sketch 52.6 (67491) - http://www.bohemiancoding.com/sketch -->
    <title>Moltonf</title>
    <desc>Created with Sketch.</desc>
    <defs>
        <linearGradient x1="2.44309971%" y1="50%" x2="97.6043172%" y2="50%" id="linearGradient-1">
            <stop stop-color="#FEFFD8" offset="0%"></stop>
            <stop stop-color="#FFFFFF" offset="100%"></stop>
        </linearGradient>
        <linearGradient x1="50%" y1="97.5298049%" x2="50%" y2="0%" id="linearGradient-2">
            <stop stop-color="#666666" offset="0%"></stop>
            <stop stop-color="#333333" offset="100%"></stop>
        </linearGradient>
        <linearGradient x1="14.9587616%" y1="0%" x2="50%" y2="100%" id="linearGradient-3">
            <stop stop-color="#FD7A3C" offset="0%"></stop>
            <stop stop-color="#F55515" offset="100%"></stop>
        </linearGradient>
    </defs>
    <g id="Page-2" stroke="none" stroke-width="1" fill="none" fill-rule="evenodd">
        <rect id="Rectangle" stroke="#979797" fill="#000000" x="-147.5" y="-208.5" width="1094" height="776" rx="8"></rect>
        <rect id="Grand" fill="url(#linearGradient-1)" x="0" y="169" width="700" height="92"></rect>
        <rect id="Sky" fill="#111827" x="0" y="0" width="700" height="170"></rect>
        <path d="M19,58.3831144 C22.1380681,63.098554 26.8343373,66.934932 32.6753465,69.0615731 C46.6724106,74.1577356 61.9426972,67.5059857 66.7824862,54.2044739 C71.6222752,40.9029621 64.1988369,25.9887003 50.2017728,20.8925378 C45.6849772,19.248027 41.0355975,18.8268575 36.6469161,19.4577153 C46.0869617,13.7562782 57.9289237,12.2216486 69.0979027,16.2881394 C88.6937925,23.4227669 98.7975117,45.0972707 91.6651911,64.6994986 C84.5328705,84.3017265 62.8653748,94.4087136 43.269485,87.2740861 C30.1518853,82.498126 21.2877647,71.20679 19,58.3831144 Z" id="Moon" fill="#F8E71C"></path>
        <path d="M306,211 L291.760858,211 L224.919029,176.546218 L224.668449,176.546218 L244.297052,211 L230.05791,211 L162,170 L173.811422,170 L229.931289,204.109244 L230.211533,204.109244 L210.585126,170 L223.127151,170 L289.202784,204.109244 L289.483027,204.109244 L260.266157,170 L271.834045,170 L306,211 Z M323.904783,197.529412 C326.703502,199.372558 329.76929,201.009797 333.11169,202.441176 C336.466692,203.872556 339.920724,205.068623 343.475606,206.029412 C347.045374,206.990201 350.635197,207.725488 354.241963,208.235294 C357.859321,208.745101 361.248855,209 364.402724,209 C367.556593,209 370.128673,208.745101 372.111095,208.235294 C374.082926,207.725488 375.314706,206.990201 375.803251,206.029412 C376.276909,205.068623 375.89519,203.872556 374.659797,202.441176 C373.411804,201.009797 371.227015,199.372558 368.114814,197.529412 C365.002614,195.686265 361.673684,194.049027 358.137376,192.617647 C354.613668,191.186267 351.057735,189.980397 347.471412,189 C343.90028,188.019603 340.402499,187.274512 336.974517,186.764706 C333.557127,186.254899 330.409151,186 327.522551,186 C324.635951,186 322.30543,186.254899 320.522975,186.764706 C318.729928,187.274512 317.621632,188.019603 317.194605,189 C316.752387,189.980397 317.063646,191.186267 318.130332,192.617647 C319.184418,194.049027 321.106065,195.686265 323.904783,197.529412 Z M311.554678,197.557407 C308.27057,195.375915 305.9218,193.337972 304.491914,191.443519 C303.04018,189.549065 302.649703,187.903402 303.312693,186.506481 C303.943461,185.109561 305.654687,184.009263 308.450166,183.205556 C311.218417,182.401848 315.209763,182 320.444744,182 C325.765545,182 331.097497,182.401848 336.460963,183.205556 C341.851368,184.009263 347.152424,185.109561 352.368254,186.506481 C357.616304,187.903402 362.627325,189.549065 367.393687,191.443519 C372.181897,193.337972 376.522192,195.375915 380.398315,197.557407 C384.274439,199.7389 387.134962,201.767275 388.963751,203.642593 C390.770913,205.517911 391.377173,207.154005 390.774604,208.550926 C390.139814,209.947846 388.248405,211.038576 385.104762,211.823148 C381.934822,212.60772 377.333314,213 371.319823,213 C365.403324,213 359.53832,212.60772 353.744572,211.823148 C347.977404,211.038576 342.481861,209.947846 337.26201,208.550926 C332.074381,207.154005 327.310547,205.517911 322.962421,203.642593 C318.635923,201.767275 314.838787,199.7389 311.554678,197.557407 Z M344,170 L354.343519,170 L431,211 L418.782383,211 L344,170 Z M405.347626,185.288089 L394.084544,185.288089 L385.88682,180.925208 L396.949382,180.925208 L388.327186,176.445983 C383.624146,174.002758 381.550246,172.150976 382.081122,170.890582 C382.579593,169.630188 385.63662,169 391.276597,169 C392.24345,169 393.429217,169.038781 394.83457,169.116343 C396.24077,169.193906 397.585173,169.310249 398.868169,169.465374 L407.604707,173.770083 C406.385714,173.614958 405.183792,173.508311 403.998403,173.450139 C402.813546,173.391966 401.76974,173.362881 400.866556,173.362881 C398.321219,173.362881 396.812498,173.595566 396.336169,174.060942 C395.854266,174.526318 396.909888,175.418276 399.507246,176.736842 L407.757633,180.925208 L420.473223,180.925208 L429.297859,185.288089 L416.351787,185.288089 L467,211 L454.841276,211 L405.347626,185.288089 Z M453.487682,187.033248 C457.842938,189.116805 462.26402,190.967596 466.761685,192.585678 C471.27351,194.203759 475.666809,195.555834 479.943641,196.641944 C484.237202,197.728053 488.345788,198.559247 492.265901,199.13555 C496.197917,199.711853 499.678808,200 502.699749,200 C505.72069,200 507.948232,199.711853 509.373513,199.13555 C510.786891,198.559247 511.280047,197.728053 510.849376,196.641944 C510.401976,195.555834 508.914177,194.203759 506.387861,192.585678 C503.847384,190.967596 500.218111,189.116805 495.510554,187.033248 C490.802997,184.949691 486.086186,183.0989 481.370601,181.480818 C476.669177,179.862737 472.154923,178.499579 467.829885,177.391304 C463.521918,176.283029 459.510338,175.440753 455.791148,174.86445 C452.083862,174.288147 448.874443,174 446.153868,174 C443.433294,174 441.477224,174.288147 440.276673,174.86445 C439.064218,175.440753 438.716273,176.283029 439.228951,177.391304 C439.724558,178.499579 441.139608,179.862737 443.476326,181.480818 C445.798882,183.0989 449.132427,184.949691 453.487682,187.033248 Z M441.58053,186.564815 C436.411469,184.10184 432.26495,181.800937 429.122394,179.662037 C425.95523,177.523137 424.02336,175.665131 423.317965,174.087963 C422.57628,172.510795 423.131732,171.268523 424.988556,170.361111 C426.814714,169.453699 430.177565,169 435.100211,169 C440.103555,169 445.51397,169.453699 451.35437,170.361111 C457.22511,171.268523 463.310808,172.510795 469.616108,174.087963 C475.957696,175.665131 482.327629,177.523137 488.717335,179.662037 C495.131647,181.800937 501.265849,184.10184 507.101668,186.564815 C512.937487,189.02779 517.653922,191.317891 521.232847,193.435185 C524.787414,195.55248 526.955861,197.399683 527.729306,198.976852 C528.466462,200.55402 527.69764,201.785489 525.42782,202.671296 C523.128384,203.557103 519.075875,204 513.292386,204 C507.602178,204 501.593873,203.557103 495.289741,202.671296 C489.015545,201.785489 482.721244,200.55402 476.411415,198.976852 C470.137876,197.399683 464.052787,195.55248 458.147019,193.435185 C452.265609,191.317891 446.74959,189.02779 441.58053,186.564815 Z M627,206.375 L615.677867,206.375 L603.468839,201.715909 L603.190845,201.715909 C605.433663,203.5341 605.681779,204.869314 603.942419,205.721591 C602.177148,206.573868 598.589382,207 593.198448,207 C588.37498,207 583.717734,206.744321 579.236007,206.232955 C574.766866,205.721588 570.385173,204.992429 566.092152,204.045455 C561.813527,203.09848 557.690622,201.971597 553.718549,200.664773 C549.754517,199.357948 545.841383,197.909099 541.972999,196.318182 L495,177 L505.674201,177 L554.946453,196.886364 C559.451367,198.704555 564.307033,200.143934 569.529719,201.204545 C574.773902,202.265157 579.683853,202.795455 584.243598,202.795455 C587.872782,202.795455 590.431329,202.568184 591.912284,202.113636 C593.38386,201.659089 593.91619,201.015156 593.507726,200.181818 C593.087801,199.348481 591.851153,198.373112 589.80058,197.255682 C587.742322,196.138252 584.975087,194.916673 581.504555,193.590909 L538.07354,177 L548.747741,177 L627,206.375 Z M583.019549,177.995536 L596.045886,177.995536 L608.224916,182.348214 L594.9599,182.348214 L646.064604,200.977679 C647.656659,201.558039 649.046333,202.02232 650.234131,202.370536 C651.422548,202.718752 652.608714,202.989582 653.792924,203.183036 C654.978096,203.376489 656.234458,203.502232 657.561713,203.560268 C658.889483,203.618304 660.487714,203.647321 662.356066,203.647321 L667.82097,203.647321 L680,208 L670.741205,208 C667.607443,208 664.68612,207.912947 661.979326,207.738839 C659.275437,207.564731 656.606453,207.245538 653.973702,206.78125 C651.345729,206.316962 648.552696,205.65923 645.594106,204.808036 C642.639747,203.956841 639.285252,202.834828 635.527351,201.441964 L584.013042,182.348214 L572.679825,182.348214 L561.140361,177.995536 L572.269659,177.995536 L548,169 L558.342823,169 L583.019549,177.995536 Z" id="Shadow" fill="url(#linearGradient-2)"></path>
        <path d="M248.291933,83.0333854 L271.47303,169.717448 L259.943165,169.717448 L242.344951,97.6021354 L242.102217,97.6021354 L222.926232,169.717448 L210.425431,169.717448 L191.006712,97.6021354 L190.763978,97.6021354 L173.772599,169.717448 L162,169.717448 L184.21016,83.0333854 L196.225493,83.0333854 L216.251047,155.877135 L216.493781,155.877135 L236.276601,83.0333854 L248.291933,83.0333854 Z M281.303756,111.658281 C281.303756,107.8542 281.809447,104.475093 282.820844,101.520859 C283.83224,98.5666259 285.227947,96.0980568 287.008005,94.1150781 C288.788063,92.1320995 290.871509,90.6145365 293.258405,89.5623438 C295.645301,88.510151 298.173755,87.9840625 300.843842,87.9840625 C303.51393,87.9840625 306.042383,88.510151 308.42928,89.5623438 C310.816176,90.6145365 312.899622,92.1320995 314.67968,94.1150781 C316.459738,96.0980568 317.855444,98.5666259 318.866841,101.520859 C319.878238,104.475093 320.383929,107.8542 320.383929,111.658281 C320.383929,115.462363 319.878238,118.84147 318.866841,121.795703 C317.855444,124.749937 316.459738,127.23874 314.67968,129.262188 C312.899622,131.285635 310.816176,132.823432 308.42928,133.875625 C306.042383,134.927818 303.51393,135.453906 300.843842,135.453906 C298.173755,135.453906 295.645301,134.927818 293.258405,133.875625 C290.871509,132.823432 288.788063,131.285635 287.008005,129.262188 C285.227947,127.23874 283.83224,124.749937 282.820844,121.795703 C281.809447,118.84147 281.303756,115.462363 281.303756,111.658281 Z M270.380727,111.658281 C270.380727,107.044821 271.028011,102.755176 272.322599,98.7892187 C273.617186,94.8232614 275.559039,91.3632179 278.148214,88.4089844 C280.73739,85.4547509 283.933355,83.1480552 287.736207,81.4888281 C291.539058,79.8296011 295.908227,79 300.843842,79 C305.86037,79 310.249766,79.8296011 314.012161,81.4888281 C317.774557,83.1480552 320.950295,85.4547509 323.53947,88.4089844 C326.128646,91.3632179 328.070498,94.8232614 329.365086,98.7892187 C330.659674,102.755176 331.306958,107.044821 331.306958,111.658281 C331.306958,116.271742 330.659674,120.581621 329.365086,124.588047 C328.070498,128.594473 326.128646,132.074751 323.53947,135.028984 C320.950295,137.983218 317.774557,140.310148 314.012161,142.009844 C310.249766,143.70954 305.86037,144.559375 300.843842,144.559375 C295.908227,144.559375 291.539058,143.70954 287.736207,142.009844 C283.933355,140.310148 280.73739,137.983218 278.148214,135.028984 C275.559039,132.074751 273.617186,128.594473 272.322599,124.588047 C271.028011,120.581621 270.380727,116.271742 270.380727,111.658281 Z M344.050493,169.717448 L344.050493,83.0333854 L354.366687,83.0333854 L354.366687,169.717448 L344.050493,169.717448 Z M374.634975,136.694948 L374.634975,83.0333854 L384.95117,83.0333854 L384.95117,136.694948 L397.087869,136.694948 L397.087869,145.800417 L384.95117,145.800417 L384.95117,154.541667 C384.95117,157.293555 385.638909,159.155099 387.014409,160.126354 C388.389908,161.097609 390.331761,161.583229 392.840025,161.583229 C393.730054,161.583229 394.70098,161.522527 395.752833,161.40112 C396.804685,161.279713 397.775611,161.057137 398.66564,160.733385 L398.66564,169.717448 C397.6947,170.0412 396.58218,170.28401 395.328048,170.445885 C394.073916,170.607761 392.961396,170.688698 391.990456,170.688698 C386.326634,170.688698 382.018149,169.373477 379.064871,166.742995 C376.111592,164.112513 374.634975,160.247786 374.634975,155.148698 L374.634975,145.800417 L364.076047,145.800417 L364.076047,136.694948 L374.634975,136.694948 Z M415.522167,132.875492 C415.522167,128.5557 416.027858,124.718496 417.039255,121.363765 C418.050652,118.009033 419.446358,115.205806 421.226416,112.954 C423.006474,110.702194 425.08992,108.978898 427.476817,107.784062 C429.863713,106.589226 432.392166,105.991817 435.062254,105.991817 C437.732341,105.991817 440.260795,106.589226 442.647691,107.784062 C445.034587,108.978898 447.118033,110.702194 448.898091,112.954 C450.678149,115.205806 452.073856,118.009033 453.085252,121.363765 C454.096649,124.718496 454.60234,128.5557 454.60234,132.875492 C454.60234,137.195283 454.096649,141.032487 453.085252,144.387219 C452.073856,147.741951 450.678149,150.568155 448.898091,152.865916 C447.118033,155.163678 445.034587,156.90995 442.647691,158.104786 C440.260795,159.299622 437.732341,159.897031 435.062254,159.897031 C432.392166,159.897031 429.863713,159.299622 427.476817,158.104786 C425.08992,156.90995 423.006474,155.163678 421.226416,152.865916 C419.446358,150.568155 418.050652,147.741951 417.039255,144.387219 C416.027858,141.032487 415.522167,137.195283 415.522167,132.875492 Z M404.73399,133.327284 C404.73399,128.088388 405.381274,123.217206 406.675862,118.713594 C407.97045,114.209982 409.912302,110.280868 412.501478,106.926137 C415.090653,103.571405 418.286619,100.951996 422.08947,99.067832 C425.892322,97.1836676 430.26149,96.2415995 435.197106,96.2415995 C440.213633,96.2415995 444.603029,97.1836676 448.365425,99.067832 C452.127821,100.951996 455.303558,103.571405 457.892734,106.926137 C460.481909,110.280868 462.423762,114.209982 463.71835,118.713594 C465.012938,123.217206 465.660222,128.088388 465.660222,133.327284 C465.660222,138.56618 465.012938,143.460338 463.71835,148.009906 C462.423762,152.559474 460.481909,156.511564 457.892734,159.866296 C455.303558,163.221027 452.127821,165.863413 448.365425,167.793533 C444.603029,169.723653 440.213633,170.688698 435.197106,170.688698 C430.26149,170.688698 425.892322,169.723653 422.08947,167.793533 C418.286619,165.863413 415.090653,163.221027 412.501478,159.866296 C409.912302,156.511564 407.97045,152.559474 406.675862,148.009906 C405.381274,143.460338 404.73399,138.56618 404.73399,133.327284 Z M527.92149,91.1271354 L527.92149,153.894167 L517.605296,153.894167 L517.605296,118.443542 C517.605296,115.610715 517.220971,113.000507 516.452309,110.612839 C515.683648,108.22517 514.530673,106.141051 512.99335,104.360417 C511.456027,102.579783 509.534402,101.203859 507.228417,100.232604 C504.922433,99.2613493 502.191703,98.7757292 499.036145,98.7757292 C495.07147,98.7757292 491.956415,99.9088428 489.690887,102.175104 C487.425358,104.441365 486.292611,107.51696 486.292611,111.401979 L486.292611,153.894167 L475.976416,153.894167 L475.976416,112.616042 C475.976416,109.21665 476.320286,106.120821 477.008036,103.328464 C477.695785,100.536106 478.889216,98.1282393 480.588362,96.1047917 C482.287508,94.081344 484.512548,92.5233128 487.263547,91.430651 C490.014546,90.3379893 493.453243,89.7916667 497.579741,89.7916667 C502.19171,89.7916667 506.196781,90.7022044 509.595074,92.5233073 C512.993367,94.3444101 515.78478,97.1974285 517.969397,101.082448 L518.212131,101.082448 L518.212131,91.1271354 L527.92149,91.1271354 Z M557.777771,151.19625 L557.777771,170.014219 L547.461576,170.014219 L547.461576,151.19625 L536.781281,151.19625 L536.781281,142.090781 L547.461576,142.090781 L547.461576,102.148125 C547.461576,99.2343604 547.744763,96.8871964 548.311145,95.1065625 C548.877527,93.3259286 549.747316,91.9500049 550.920536,90.97875 C552.093756,90.0074951 553.631056,89.3397674 555.532482,88.9755469 C557.433907,88.6113263 559.71963,88.4292188 562.389717,88.4292188 L570.278571,88.4292188 L570.278571,97.5346875 L565.545259,97.5346875 C563.927024,97.5346875 562.612228,97.59539 561.600831,97.7167969 C560.589435,97.8382037 559.800557,98.101248 559.234175,98.5059375 C558.667793,98.910627 558.283468,99.4771839 558.081188,100.205625 C557.878909,100.934066 557.777771,101.905306 557.777771,103.119375 L557.777771,142.090781 L570.278571,142.090781 L570.278571,151.19625 L557.777771,151.19625 Z" id="Logo" fill="url(#linearGradient-3)"></path>
    </g>
</svg>