<svg width="700" height="250" viewBox="0 0 700 250" fill="none" xmlns="http://www.w3.org/2000/svg">
<rect width="700" height="250" fill="white"/>
<rect id="Grand" y="169" width="700" height="92" fill="url(#paint0_linear_0_9)"/>
<rect id="Sky" width="700" height="170" fill="#111827"/>
<path id="Moon" fill-rule="evenodd" clip-rule="evenodd" d="M56.1837 89.5622C77.0429 89.5622 93.9526 72.647 93.9526 51.7811C93.9526 30.9152 77.0429 14 56.1837 14C48.8898 14 42.0788 16.0682 36.3048 19.6504C37.9664 19.3407 39.6828 19.1784 41.4386 19.1784C56.2528 19.1784 68.2621 30.7289 68.2621 44.9771C68.2621 59.2252 56.2528 70.7757 41.4386 70.7757C32.1682 70.7757 23.9962 66.2525 19.1781 59.3757C22.6924 76.6017 37.925 89.5622 56.1837 89.5622Z" fill="#F8E71C"/>
<path id="Shadow" fill-rule="evenodd" clip-rule="evenodd" d="M306 211H291.761L224.919 176.546H224.668L244.297 211H230.058L162 170H173.811L229.931 204.109H230.212L210.585 170H223.127L289.203 204.109H289.483L260.266 170H271.834L306 211ZM323.905 197.529C326.704 199.373 329.769 201.01 333.112 202.441C336.467 203.873 339.921 205.069 343.476 206.029C347.045 206.99 350.635 207.725 354.242 208.235C357.859 208.745 361.249 209 364.403 209C367.557 209 370.129 208.745 372.111 208.235C374.083 207.725 375.315 206.99 375.803 206.029C376.277 205.069 375.895 203.873 374.66 202.441C373.412 201.01 371.227 199.373 368.115 197.529C365.003 195.686 361.674 194.049 358.137 192.618C354.614 191.186 351.058 189.98 347.471 189C343.9 188.02 340.402 187.275 336.975 186.765C333.557 186.255 330.409 186 327.523 186C324.636 186 322.305 186.255 320.523 186.765C318.73 187.275 317.622 188.02 317.195 189C316.752 189.98 317.064 191.186 318.13 192.618C319.184 194.049 321.106 195.686 323.905 197.529ZM311.555 197.557C308.271 195.376 305.922 193.338 304.492 191.444C303.04 189.549 302.65 187.903 303.313 186.506C303.943 185.11 305.655 184.009 308.45 183.206C311.218 182.402 315.21 182 320.445 182C325.766 182 331.097 182.402 336.461 183.206C341.851 184.009 347.152 185.11 352.368 186.506C357.616 187.903 362.627 189.549 367.394 191.444C372.182 193.338 376.522 195.376 380.398 197.557C384.274 199.739 387.135 201.767 388.964 203.643C390.771 205.518 391.377 207.154 390.775 208.551C390.14 209.948 388.248 211.039 385.105 211.823C381.935 212.608 377.333 213 371.32 213C365.403 213 359.538 212.608 353.745 211.823C347.977 211.039 342.482 209.948 337.262 208.551C332.074 207.154 327.311 205.518 322.962 203.643C318.636 201.767 314.839 199.739 311.555 197.557ZM344 170H354.344L431 211H418.782L344 170ZM405.348 185.288H394.085L385.887 180.925H396.949L388.327 176.446C383.624 174.003 381.55 172.151 382.081 170.891C382.58 169.63 385.637 169 391.277 169C392.243 169 393.429 169.039 394.835 169.116C396.241 169.194 397.585 169.31 398.868 169.465L407.605 173.77C406.386 173.615 405.184 173.508 403.998 173.45C402.814 173.392 401.77 173.363 400.867 173.363C398.321 173.363 396.812 173.596 396.336 174.061C395.854 174.526 396.91 175.418 399.507 176.737L407.758 180.925H420.473L429.298 185.288H416.352L467 211H454.841L405.348 185.288ZM453.488 187.033C457.843 189.117 462.264 190.968 466.762 192.586C471.274 194.204 475.667 195.556 479.944 196.642C484.237 197.728 488.346 198.559 492.266 199.136C496.198 199.712 499.679 200 502.7 200C505.721 200 507.948 199.712 509.374 199.136C510.787 198.559 511.28 197.728 510.849 196.642C510.402 195.556 508.914 194.204 506.388 192.586C503.847 190.968 500.218 189.117 495.511 187.033C490.803 184.95 486.086 183.099 481.371 181.481C476.669 179.863 472.155 178.5 467.83 177.391C463.522 176.283 459.51 175.441 455.791 174.864C452.084 174.288 448.874 174 446.154 174C443.433 174 441.477 174.288 440.277 174.864C439.064 175.441 438.716 176.283 439.229 177.391C439.725 178.5 441.14 179.863 443.476 181.481C445.799 183.099 449.132 184.95 453.488 187.033ZM441.581 186.565C436.411 184.102 432.265 181.801 429.122 179.662C425.955 177.523 424.023 175.665 423.318 174.088C422.576 172.511 423.132 171.269 424.989 170.361C426.815 169.454 430.178 169 435.1 169C440.104 169 445.514 169.454 451.354 170.361C457.225 171.269 463.311 172.511 469.616 174.088C475.958 175.665 482.328 177.523 488.717 179.662C495.132 181.801 501.266 184.102 507.102 186.565C512.937 189.028 517.654 191.318 521.233 193.435C524.787 195.552 526.956 197.4 527.729 198.977C528.466 200.554 527.698 201.785 525.428 202.671C523.128 203.557 519.076 204 513.292 204C507.602 204 501.594 203.557 495.29 202.671C489.016 201.785 482.721 200.554 476.411 198.977C470.138 197.4 464.053 195.552 458.147 193.435C452.266 191.318 446.75 189.028 441.581 186.565ZM627 206.375H615.678L603.469 201.716H603.191C605.434 203.534 605.682 204.869 603.942 205.722C602.177 206.574 598.589 207 593.198 207C588.375 207 583.718 206.744 579.236 206.233C574.767 205.722 570.385 204.992 566.092 204.045C561.814 203.098 557.691 201.972 553.719 200.665C549.755 199.358 545.841 197.909 541.973 196.318L495 177H505.674L554.946 196.886C559.451 198.705 564.307 200.144 569.53 201.205C574.774 202.265 579.684 202.795 584.244 202.795C587.873 202.795 590.431 202.568 591.912 202.114C593.384 201.659 593.916 201.015 593.508 200.182C593.088 199.348 591.851 198.373 589.801 197.256C587.742 196.138 584.975 194.917 581.505 193.591L538.074 177H548.748L627 206.375ZM583.02 177.996H596.046L608.225 182.348H594.96L646.065 200.978C647.657 201.558 649.046 202.022 650.234 202.371C651.423 202.719 652.609 202.99 653.793 203.183C654.978 203.376 656.234 203.502 657.562 203.56C658.889 203.618 660.488 203.647 662.356 203.647H667.821L680 208H670.741C667.607 208 664.686 207.913 661.979 207.739C659.275 207.565 656.606 207.246 653.974 206.781C651.346 206.317 648.553 205.659 645.594 204.808C642.64 203.957 639.285 202.835 635.527 201.442L584.013 182.348H572.68L561.14 177.996H572.27L548 169H558.343L583.02 177.996Z" fill="url(#paint1_linear_0_9)"/>
<path id="Moltonf" fill-rule="evenodd" clip-rule="evenodd" d="M248.292 83.0334L271.473 169.717H259.943L242.345 97.6021H242.102L222.926 169.717H210.425L191.007 97.6021H190.764L173.773 169.717H162L184.21 83.0334H196.225L216.251 155.877H216.494L236.277 83.0334H248.292ZM281.304 111.658C281.304 107.854 281.809 104.475 282.821 101.521C283.832 98.5666 285.228 96.0981 287.008 94.1151C288.788 92.1321 290.872 90.6145 293.258 89.5623C295.645 88.5102 298.174 87.9841 300.844 87.9841C303.514 87.9841 306.042 88.5102 308.429 89.5623C310.816 90.6145 312.9 92.1321 314.68 94.1151C316.46 96.0981 317.855 98.5666 318.867 101.521C319.878 104.475 320.384 107.854 320.384 111.658C320.384 115.462 319.878 118.841 318.867 121.796C317.855 124.75 316.46 127.239 314.68 129.262C312.9 131.286 310.816 132.823 308.429 133.876C306.042 134.928 303.514 135.454 300.844 135.454C298.174 135.454 295.645 134.928 293.258 133.876C290.872 132.823 288.788 131.286 287.008 129.262C285.228 127.239 283.832 124.75 282.821 121.796C281.809 118.841 281.304 115.462 281.304 111.658ZM270.381 111.658C270.381 107.045 271.028 102.755 272.323 98.7892C273.617 94.8233 275.559 91.3632 278.148 88.409C280.737 85.4548 283.933 83.1481 287.736 81.4888C291.539 79.8296 295.908 79 300.844 79C305.86 79 310.25 79.8296 314.012 81.4888C317.775 83.1481 320.95 85.4548 323.539 88.409C326.129 91.3632 328.071 94.8233 329.365 98.7892C330.66 102.755 331.307 107.045 331.307 111.658C331.307 116.272 330.66 120.582 329.365 124.588C328.071 128.594 326.129 132.075 323.539 135.029C320.95 137.983 317.775 140.31 314.012 142.01C310.25 143.71 305.86 144.559 300.844 144.559C295.908 144.559 291.539 143.71 287.736 142.01C283.933 140.31 280.737 137.983 278.148 135.029C275.559 132.075 273.617 128.594 272.323 124.588C271.028 120.582 270.381 116.272 270.381 111.658ZM344.05 169.717V83.0334H354.367V169.717H344.05ZM374.635 136.695V83.0334H384.951V136.695H397.088V145.8H384.951V154.542C384.951 157.294 385.639 159.155 387.014 160.126C388.39 161.098 390.332 161.583 392.84 161.583C393.73 161.583 394.701 161.523 395.753 161.401C396.805 161.28 397.776 161.057 398.666 160.733V169.717C397.695 170.041 396.582 170.284 395.328 170.446C394.074 170.608 392.961 170.689 391.99 170.689C386.327 170.689 382.018 169.373 379.065 166.743C376.112 164.113 374.635 160.248 374.635 155.149V145.8H364.076V136.695H374.635ZM415.522 132.875C415.522 128.556 416.028 124.718 417.039 121.364C418.051 118.009 419.446 115.206 421.226 112.954C423.006 110.702 425.09 108.979 427.477 107.784C429.864 106.589 432.392 105.992 435.062 105.992C437.732 105.992 440.261 106.589 442.648 107.784C445.035 108.979 447.118 110.702 448.898 112.954C450.678 115.206 452.074 118.009 453.085 121.364C454.097 124.718 454.602 128.556 454.602 132.875C454.602 137.195 454.097 141.032 453.085 144.387C452.074 147.742 450.678 150.568 448.898 152.866C447.118 155.164 445.035 156.91 442.648 158.105C440.261 159.3 437.732 159.897 435.062 159.897C432.392 159.897 429.864 159.3 427.477 158.105C425.09 156.91 423.006 155.164 421.226 152.866C419.446 150.568 418.051 147.742 417.039 144.387C416.028 141.032 415.522 137.195 415.522 132.875ZM404.734 133.327C404.734 128.088 405.381 123.217 406.676 118.714C407.97 114.21 409.912 110.281 412.501 106.926C415.091 103.571 418.287 100.952 422.089 99.0678C425.892 97.1837 430.261 96.2416 435.197 96.2416C440.214 96.2416 444.603 97.1837 448.365 99.0678C452.128 100.952 455.304 103.571 457.893 106.926C460.482 110.281 462.424 114.21 463.718 118.714C465.013 123.217 465.66 128.088 465.66 133.327C465.66 138.566 465.013 143.46 463.718 148.01C462.424 152.559 460.482 156.512 457.893 159.866C455.304 163.221 452.128 165.863 448.365 167.794C444.603 169.724 440.214 170.689 435.197 170.689C430.261 170.689 425.892 169.724 422.089 167.794C418.287 165.863 415.091 163.221 412.501 159.866C409.912 156.512 407.97 152.559 406.676 148.01C405.381 143.46 404.734 138.566 404.734 133.327ZM527.921 91.1271V153.894H517.605V118.444C517.605 115.611 517.221 113.001 516.452 110.613C515.684 108.225 514.531 106.141 512.993 104.36C511.456 102.58 509.534 101.204 507.228 100.233C504.922 99.2613 502.192 98.7757 499.036 98.7757C495.071 98.7757 491.956 99.9088 489.691 102.175C487.425 104.441 486.293 107.517 486.293 111.402V153.894H475.976V112.616C475.976 109.217 476.32 106.121 477.008 103.328C477.696 100.536 478.889 98.1282 480.588 96.1048C482.288 94.0813 484.513 92.5233 487.264 91.4307C490.015 90.338 493.453 89.7917 497.58 89.7917C502.192 89.7917 506.197 90.7022 509.595 92.5233C512.993 94.3444 515.785 97.1974 517.969 101.082H518.212V91.1271H527.921ZM557.778 151.196V170.014H547.462V151.196H536.781V142.091H547.462V102.148C547.462 99.2344 547.745 96.8872 548.311 95.1066C548.878 93.3259 549.747 91.95 550.921 90.9787C552.094 90.0075 553.631 89.3398 555.532 88.9755C557.434 88.6113 559.72 88.4292 562.39 88.4292H570.279V97.5347H565.545C563.927 97.5347 562.612 97.5954 561.601 97.7168C560.589 97.8382 559.801 98.1012 559.234 98.5059C558.668 98.9106 558.283 99.4772 558.081 100.206C557.879 100.934 557.778 101.905 557.778 103.119V142.091H570.279V151.196H557.778Z" fill="url(#paint2_linear_0_9)"/>
<defs>
<linearGradient id="paint0_linear_0_9" x1="17.1017" y1="258.774" x2="683.23" y2="258.774" gradientUnits="userSpaceOnUse">
<stop stop-color="#FEFFD8"/>
<stop offset="1" stop-color="white"/>
</linearGradient>
<linearGradient id="paint1_linear_0_9" x1="673.602" y1="211.913" x2="673.602" y2="169" gradientUnits="userSpaceOnUse">
<stop stop-color="#666666"/>
<stop offset="1" stop-color="#333333"/>
</linearGradient>
<linearGradient id="paint2_linear_0_9" x1="18.9341" y1="95.0644" x2="26.9855" y2="197.378" gradientUnits="userSpaceOnUse">
<stop stop-color="#FD7A3C"/>
<stop offset="1" stop-color="#F55515"/>
</linearGradient>
</defs>
</svg>
